Inverse Dynamics Generalized Forces
version=1
nRows=11
nColumns=34
inDegrees=no
endheader 
time	pelvis_tilt_moment	pelvis_list_moment	pelvis_rotation_moment	pelvis_tx_force	pelvis_ty_force	pelvis_tz_force	hip_flexion_l_moment	hip_adduction_l_moment	hip_rotation_l_moment	hip_flexion_r_moment	hip_adduction_r_moment	hip_rotation_r_moment	knee_angle_l_moment	knee_angle_r_moment	ankle_angle_l_moment	ankle_angle_r_moment	subtalar_angle_l_moment	subtalar_angle_r_moment	mtp_angle_l_moment	mtp_angle_r_moment	lumbar_extension_moment	lumbar_bending_moment	lumbar_rotation_moment	arm_flex_l_moment	arm_add_l_moment	arm_rot_l_moment	arm_flex_r_moment	arm_add_r_moment	arm_rot_r_moment	elbow_flex_l_moment	elbow_flex_r_moment	pro_sup_l_moment	pro_sup_r_moment	
          6.07000000	         -0.00000007	         -0.00000005	         -0.00000007	         -0.00000014	          0.00000005	          0.00000012	        -31.38634663	        -32.55990753	         11.11279294	        -17.83722390	       -126.98736425	          4.85907816	        -18.53612194	         49.49077113	          1.22355448	          9.58409625	          0.48548063	         -3.35883256	         -0.04183039	         -0.68686441	         62.36918859	        300.00000054	         -4.17052018	        -25.31785678	        -84.94829165	        -10.36242644	        -22.52757720	        -82.53035673	         -0.58862504	        -23.14629518	        -44.12467524	          0.06523954	          0.51258236	
          6.09026316	         -0.00000003	          0.00000000	         -0.00000001	         -0.00000002	          0.00000003	          0.00000002	        -25.00398148	         -1.10361371	          0.17108899	        -66.32952819	        -96.06896324	         23.94484046	          8.63364209	         38.90293298	          3.76033374	          0.73786332	          0.00018905	         -1.25024767	         -0.08390438	          0.00911504	        148.28344754	        172.79817203	        120.55693918	         -7.23635778	        -29.81446461	          3.66887200	         53.43963979	         19.75676785	          5.69583172	        -14.91098033	         28.46170874	          0.33481443	          0.65141655	
          6.11052632	         -0.00000000	          0.00000000	         -0.00000001	         -0.00000002	          0.00000001	          0.00000001	          6.53231084	          8.20822541	         -6.55281388	       -118.64883117	       -240.61150907	        111.83821103	         10.01738521	         -9.57673450	          4.60837477	         -4.45241012	          0.29748953	         -4.22619685	          0.12130785	          0.57421469	        214.96427759	        228.70455279	        196.02192236	         -6.80064664	          0.75166713	         13.44544701	         77.83974201	         68.51363759	         41.66434506	        -10.49369949	         51.93975470	          0.53273310	          0.76420329	
          6.13078947	         -0.00000001	         -0.00000000	          0.00000003	          0.00000003	          0.00000003	         -0.00000001	         64.38467849	        146.67201185	         -7.48737445	       -202.79740763	       -220.19369638	        106.52046384	         10.92759805	        -34.09305691	          0.97544903	         -6.44035926	          4.44557372	         -3.80631530	          0.43481391	          0.65875475	        235.82927482	        260.03956290	        241.72125057	        -26.68743880	         -8.54392812	          7.90099501	         44.76865049	         59.24573689	         47.33821198	        -12.36678179	         21.33511315	          0.48213599	          0.62805742	
          6.15105263	          0.00000001	         -0.00000000	          0.00000000	          0.00000003	         -0.00000001	          0.00000001	        107.63395834	        201.27066345	          4.25025450	       -245.97721042	       -123.89552207	         81.92334903	          0.19512816	         24.81934114	         -0.99862016	          1.36183011	          5.27552374	         -6.54585383	          0.36132814	          0.07407220	        213.80525670	        277.60254616	        267.33530087	        -49.70783586	        -34.84314283	          2.92251806	         52.94631430	         10.43062021	         13.44212999	        -15.88548708	         -6.26334664	          0.25089459	          0.06374136	
          6.17131579	          0.00000001	         -0.00000000	         -0.00000001	         -0.00000000	         -0.00000001	          0.00000000	         47.16587021	        168.00585812	          3.36537792	       -298.32476659	         49.54146760	         78.29271345	         18.24421880	        144.90825097	          2.36533430	          3.03671256	          2.75551130	         -7.58953859	         -0.16243001	         -0.27094329	        242.08451155	        287.44643566	        281.69173911	        -62.31234201	        -60.37898616	          2.56387375	         80.10303248	        -23.66652579	         -7.04099244	         -9.30023000	         -6.50014772	         -0.08224219	         -0.17134525	
          6.19157895	         -0.00000002	          0.00000001	          0.00000002	          0.00000002	         -0.00000001	         -0.00000001	        -66.91172646	        214.35068678	         -6.71805264	       -266.02112129	        219.97920271	         37.43823203	         66.05972989	        167.68671894	          4.61411641	         -3.54709014	          2.60403122	         -2.34467519	         -0.59200491	         -0.22776614	        209.39656626	        292.96384435	         88.86934222	        -59.71356937	        -53.21712269	          8.81475314	         60.78373289	         -2.80267692	         10.46391919	         -1.52188423	          5.90370105	         -0.01028826	          0.37710289	
          6.21184211	          0.00000001	          0.00000001	         -0.00000001	         -0.00000001	          0.00000003	          0.00000001	         67.43915434	        211.53747351	         -2.25837121	        -83.73014862	        125.17436159	          5.93816003	         28.77800647	         97.91653091	          4.74796603	          3.94259105	          6.18929368	         -0.50952038	         -0.44875879	         -0.51533725	        -14.48794210	        169.08273064	         19.93475438	        -57.25016646	        -48.81517852	         13.30711971	         39.72529998	        -21.30578398	          2.61529278	        -10.20054890	         20.27493691	          0.48215219	          0.11936522	
          6.23210526	          0.00000003	         -0.00000002	         -0.00000002	         -0.00000004	          0.00000003	          0.00000003	        110.65833904	        105.79768715	          1.35390885	         21.29933550	         71.45238202	         -6.33067025	         -2.57885526	         30.91755766	          7.16691221	          4.29603614	          2.68896364	          1.68759104	         -0.41631839	         -0.29561923	       -130.27708134	         64.29485679	        -25.15768897	        -38.09967129	        -28.48436173	         19.21810428	         -2.08387210	        -27.30776256	         -9.19153772	        -11.89356132	         15.91315856	          1.21722580	         -0.16185771	
          6.25236842	         -0.00000002	          0.00000002	          0.00000000	          0.00000002	         -0.00000002	          0.00000001	         83.05573526	         81.75127946	          3.29034298	        -26.86054652	         29.93295731	         -5.66980419	          6.82391701	         -2.90915198	         10.57462445	         -0.64058463	         -0.96710117	          0.40679166	         -0.52525508	          0.14160454	        -47.34404692	         76.68383529	         43.01877627	        -18.18567631	         -7.54144183	         27.90232836	        -14.65286344	        -11.33411735	         -1.31311893	         -4.27397370	          2.96320986	          1.69738058	          0.04561058	
          6.27263158	          0.00000001	         -0.00000001	          0.00000001	          0.00000001	         -0.00000002	         -0.00000002	         69.24097240	         34.53036944	          4.74572744	         30.37120367	         58.82225732	        -15.17797945	         11.51942847	        -28.21708906	         13.02475168	         -3.50503685	         -4.46789336	          1.71067034	         -0.45082317	          0.22515418	       -156.94274106	        -29.02826470	       -107.74113446	        -49.42379072	         61.20754763	         65.85399163	        -48.08819691	          8.15409700	         10.32599388	         -4.20872926	         -4.36496807	          2.44228891	          0.25713660	
